<?xml version="1.0" standalone="no"?>
<!DOCTYPE svg PUBLIC "-//W3C//DTD SVG 20010904//EN"
 "http://www.w3.org/TR/2001/REC-SVG-20010904/DTD/svg10.dtd">
<svg version="1.0" xmlns="http://www.w3.org/2000/svg"
 width="1000.000000pt" height="1000.000000pt" viewBox="0 0 1000.000000 1000.000000"
 preserveAspectRatio="xMidYMid meet">
<metadata>
Created by potrace 1.11, written by Peter Selinger 2001-2013
</metadata>
<g transform="translate(0.000000,1000.000000) scale(0.100000,-0.100000)"
fill="#000000" stroke="none">
<path d="M3211 8025 c-632 -374 -1159 -1007 -1419 -1705 -157 -421 -216 -748
-216 -1205 -1 -469 60 -803 226 -1235 44 -114 183 -410 192 -410 4 0 -5 23
-19 50 -14 28 -23 55 -19 61 3 6 27 -31 53 -83 26 -51 68 -125 93 -163 24 -39
59 -97 76 -130 18 -33 32 -54 32 -46 0 8 14 -6 32 -30 46 -65 186 -237 198
-244 10 -6 -56 86 -236 329 -36 48 -63 90 -60 93 3 3 33 -34 68 -83 161 -224
345 -435 505 -581 112 -101 278 -236 350 -283 26 -17 35 -21 19 -8 -224 178
-285 228 -368 304 -279 256 -521 577 -697 923 -131 258 -212 472 -275 731 -49
198 -87 444 -85 545 1 22 9 -25 19 -105 29 -235 98 -555 123 -571 5 -4 6 -12
2 -19 -5 -9 -4 -11 3 -6 7 4 12 2 12 -5 0 -7 3 -10 6 -7 3 3 -6 48 -20 99 -14
52 -26 101 -25 109 0 8 13 -31 29 -87 87 -316 203 -590 364 -861 283 -477 735
-917 1220 -1189 110 -62 347 -177 386 -187 14 -4 -42 26 -125 67 -82 40 -163
85 -180 99 -16 14 -79 56 -140 93 -518 318 -952 781 -1209 1289 -305 600 -414
1273 -320 1961 54 393 200 816 403 1170 147 255 306 461 531 685 266 266 514
447 849 617 l123 63 -48 1 c-27 0 -110 1 -184 0 l-135 0 -169 -122 c-498 -361
-750 -607 -991 -969 -469 -705 -652 -1540 -524 -2387 44 -292 150 -638 265
-867 20 -37 34 -70 32 -72 -9 -8 -94 169 -139 288 -159 422 -227 856 -207
1330 20 475 128 898 343 1333 139 283 282 496 496 739 191 217 336 345 629
556 198 143 247 180 233 180 -5 0 -51 -25 -102 -55z m-1476 -3324 c15 -128 24
-235 22 -237 -12 -12 -57 352 -56 441 2 82 5 64 34 -204z m32 -283 c-3 -8 -6
-5 -6 6 -1 11 2 17 5 13 3 -3 4 -12 1 -19z m10 -40 c-3 -8 -6 -5 -6 6 -1 11 2
17 5 13 3 -3 4 -12 1 -19z m302 -958 c11 -24 11 -24 -3 -6 -9 11 -16 24 -16
30 0 12 5 7 19 -24z"/>
<path d="M6260 8069 c0 -4 19 -14 43 -24 74 -29 298 -155 427 -240 177 -115
312 -227 486 -400 274 -273 470 -545 625 -870 252 -527 342 -1042 294 -1685
-10 -129 -20 -237 -22 -240 -3 -3 -2 119 2 270 10 376 -13 644 -79 921 -44
188 -142 467 -202 578 -31 58 -27 41 21 -74 129 -308 207 -629 236 -963 16
-195 7 -546 -19 -717 -57 -368 -168 -729 -317 -1026 -166 -331 -342 -567 -649
-871 -99 -97 -177 -180 -173 -184 18 -18 283 202 458 382 370 381 640 858 782
1384 109 402 135 882 71 1320 -58 403 -223 849 -440 1195 -143 228 -286 404
-543 668 -74 75 -132 139 -130 142 9 8 259 -230 343 -326 326 -375 577 -836
706 -1295 87 -312 114 -512 114 -869 1 -345 -20 -532 -88 -805 -174 -686 -570
-1301 -1123 -1745 -204 -163 -573 -395 -573 -360 0 3 5 15 10 26 6 10 8 19 5
19 -4 0 -93 -42 -198 -94 -344 -169 -592 -252 -998 -334 l-47 -9 -6 66 c-3 36
-8 161 -12 276 -3 116 -8 224 -10 240 -8 60 -17 1283 -9 1388 12 179 20 127
30 -192 4 -118 10 -235 14 -260 17 -108 24 187 14 589 -12 439 -8 529 28 800
15 115 22 221 23 347 1 101 3 183 6 183 3 0 52 -9 110 -21 116 -22 301 -27
385 -10 89 19 294 24 435 12 74 -6 254 -30 400 -52 496 -75 648 -88 799 -70
52 7 97 14 101 16 4 2 4 21 1 42 -5 29 -11 39 -29 41 -23 4 -31 22 -9 22 30 0
60 49 65 104 4 51 3 54 -32 82 -20 16 -57 36 -83 45 -44 14 -49 19 -61 62 -12
44 -12 49 12 90 15 24 26 48 26 54 0 14 -196 157 -259 189 -29 14 -83 33 -121
42 -74 18 -80 25 -60 76 9 23 6 28 -28 51 -68 45 -120 50 -492 49 -190 -1
-457 -6 -595 -12 -137 -6 -324 -14 -414 -18 l-164 -6 6 153 c3 85 27 334 52
554 68 584 73 910 16 1058 l-11 28 -29 -20 c-16 -12 -32 -33 -36 -48 -8 -31
-6 -33 -35 45 -9 24 -18 32 -37 32 -13 0 -38 7 -54 16 -17 8 -32 14 -33 12 -1
-2 -16 -24 -33 -49 -25 -35 -36 -68 -48 -134 -8 -48 -15 -89 -15 -91 0 -2 -22
-4 -49 -4 -35 0 -58 7 -86 25 l-37 26 -48 -43 c-58 -53 -97 -122 -143 -254
-40 -114 -79 -285 -75 -323 2 -19 -2 -26 -17 -29 -16 -2 -17 -1 -6 7 11 7 6
11 -23 16 -28 6 -41 3 -57 -11 -52 -47 -70 -227 -62 -604 3 -146 3 -296 -1
-333 -8 -67 -9 -69 -32 -63 -57 15 -353 -29 -814 -119 -129 -26 -266 -52 -305
-60 -65 -12 -67 -13 -25 -14 25 0 103 4 174 9 72 5 132 7 134 5 14 -14 -86
-39 -178 -45 -101 -7 -180 -25 -180 -42 0 -4 91 -8 203 -9 l202 -1 -60 -19
c-76 -25 -176 -35 -560 -54 -170 -8 -320 -18 -332 -21 -43 -12 -23 -21 60 -29
l82 -9 -72 -7 c-40 -5 -89 -16 -110 -24 -36 -15 -37 -17 -18 -28 15 -9 136
-12 452 -12 237 0 435 -3 439 -7 4 -5 -114 -8 -262 -9 -148 -1 -282 -2 -299
-4 -16 -1 -53 -3 -81 -4 -44 -1 -52 -4 -62 -26 -12 -26 -7 -31 18 -15 18 11
40 -5 40 -30 0 -18 -47 -28 -155 -32 -91 -3 145 -16 317 -17 166 -1 361 -16
386 -31 8 -4 -84 -10 -205 -14 -622 -19 -965 -60 -827 -98 44 -12 798 27 1274
66 30 3 220 8 421 12 l366 7 7 -36 c13 -70 25 -353 26 -602 1 -137 5 -286 10
-330 5 -44 16 -307 25 -585 8 -278 17 -532 20 -565 3 -33 12 -184 20 -335 24
-428 55 -782 91 -1027 5 -35 3 -42 -12 -46 -17 -4 -17 -5 1 -6 18 -1 23 -12
33 -73 7 -39 20 -103 30 -142 l17 -71 5 140 c3 77 2 144 -2 150 -5 5 -8 30 -8
56 0 26 -12 195 -26 376 -35 448 -38 903 -5 903 10 0 30 -106 40 -215 9 -90 6
-411 -4 -580 -3 -49 -1 -144 5 -210 13 -155 27 -396 35 -610 7 -202 21 -354
40 -450 8 -38 16 -74 17 -80 1 -5 4 40 7 100 4 61 3 126 -1 145 -4 19 -11 149
-15 288 -5 213 -4 255 8 263 10 6 10 9 2 9 -10 0 -13 31 -12 123 1 153 12 202
23 102 12 -111 16 -223 26 -645 13 -534 33 -804 61 -834 5 -6 9 54 9 144 0 84
2 151 4 149 4 -4 10 -41 21 -140 3 -31 12 -65 19 -75 12 -16 15 -12 27 41 11
48 14 186 12 675 -1 358 2 609 7 600 29 -52 38 -401 20 -801 -7 -132 -10 -243
-7 -245 3 -3 13 17 23 45 17 48 50 75 59 48 2 -7 14 -113 26 -237 11 -124 24
-227 26 -230 3 -3 3 92 -1 210 -3 118 -9 314 -12 434 -9 310 16 700 40 625 2
-8 7 -174 11 -369 3 -195 8 -375 10 -400 2 -25 7 -115 10 -200 10 -284 34
-551 54 -603 8 -21 9 -21 17 8 7 28 -1 736 -11 940 -9 177 -25 567 -25 605 l0
38 98 12 c365 45 802 131 952 187 282 105 579 278 845 490 141 112 396 367
509 508 582 730 834 1663 700 2600 -106 748 -493 1485 -1047 1994 -180 165
-407 336 -557 419 l-55 31 -233 3 c-127 2 -232 0 -232 -3z m-1040 -6204 c0
-13 -4 -27 -10 -30 -6 -4 -10 8 -10 30 0 22 4 34 10 30 6 -3 10 -17 10 -30z"/>
<path d="M2015 3430 c9 -16 18 -30 21 -30 2 0 -2 14 -11 30 -9 17 -18 30 -21
30 -2 0 2 -13 11 -30z"/>
<path d="M2211 3135 c0 -5 6 -19 14 -29 8 -11 15 -15 15 -10 0 6 -7 19 -15 30
-8 10 -14 15 -14 9z"/>
<path d="M2549 2755 c84 -98 311 -294 477 -413 261 -185 576 -343 904 -453
142 -47 366 -104 440 -112 l55 -6 -45 10 c-386 88 -641 174 -910 309 -314 157
-577 345 -860 615 -57 55 -85 78 -61 50z"/>
<path d="M3150 2306 c0 -3 9 -10 20 -16 11 -6 20 -8 20 -6 0 3 -9 10 -20 16
-11 6 -20 8 -20 6z"/>
<path d="M3820 2010 c8 -5 20 -10 25 -10 6 0 3 5 -5 10 -8 5 -19 10 -25 10 -5
0 -3 -5 5 -10z"/>
<path d="M4468 1853 c7 -3 16 -2 19 1 4 3 -2 6 -13 5 -11 0 -14 -3 -6 -6z"/>
<path d="M4000 1847 c0 -7 280 -100 286 -95 2 3 -55 24 -128 48 -73 23 -139
45 -145 47 -7 3 -13 3 -13 0z"/>
<path d="M4523 1843 c9 -2 23 -2 30 0 6 3 -1 5 -18 5 -16 0 -22 -2 -12 -5z"/>
<path d="M4593 1833 c9 -2 25 -2 35 0 9 3 1 5 -18 5 -19 0 -27 -2 -17 -5z"/>
</g>
</svg>
